<svg width="634" height="609" viewBox="0 0 634 609" fill="none" xmlns="http://www.w3.org/2000/svg">
<rect width="634" height="609" fill="#5ACF97"/>
<path d="M223.28 304.48C225.232 305.152 226.752 306.208 227.84 307.648C228.96 309.056 229.52 310.704 229.52 312.592C229.52 314.64 228.848 316.416 227.504 317.92C226.16 319.424 224.336 320.576 222.032 321.376C219.76 322.176 217.264 322.576 214.544 322.576C212.24 322.576 209.936 322.288 207.632 321.712C205.36 321.136 203.2 320.256 201.152 319.072L203.552 313.504C205.024 314.4 206.64 315.088 208.4 315.568C210.192 316.016 211.936 316.24 213.632 316.24C215.936 316.24 217.84 315.824 219.344 314.992C220.88 314.16 221.648 312.992 221.648 311.488C221.648 310.24 221.12 309.296 220.064 308.656C219.04 308.016 217.632 307.696 215.84 307.696H207.632V301.84H215.264C216.832 301.84 218.048 301.52 218.912 300.88C219.808 300.24 220.256 299.36 220.256 298.24C220.256 296.928 219.616 295.904 218.336 295.168C217.088 294.432 215.472 294.064 213.488 294.064C212.016 294.064 210.496 294.272 208.928 294.688C207.36 295.072 205.872 295.664 204.464 296.464L202.112 290.416C205.664 288.592 209.504 287.68 213.632 287.68C216.256 287.68 218.672 288.064 220.88 288.832C223.088 289.6 224.848 290.72 226.16 292.192C227.472 293.664 228.128 295.376 228.128 297.328C228.128 298.928 227.696 300.352 226.832 301.6C225.968 302.848 224.784 303.808 223.28 304.48ZM245.132 295.792C249.132 295.792 252.204 296.752 254.348 298.672C256.492 300.56 257.564 303.424 257.564 307.264V322H250.556V318.784C249.148 321.184 246.524 322.384 242.684 322.384C240.7 322.384 238.972 322.048 237.5 321.376C236.06 320.704 234.956 319.776 234.188 318.592C233.42 317.408 233.036 316.064 233.036 314.56C233.036 312.16 233.932 310.272 235.724 308.896C237.548 307.52 240.348 306.832 244.124 306.832H250.076C250.076 305.2 249.58 303.952 248.588 303.088C247.596 302.192 246.108 301.744 244.124 301.744C242.748 301.744 241.388 301.968 240.044 302.416C238.732 302.832 237.612 303.408 236.684 304.144L233.996 298.912C235.404 297.92 237.084 297.152 239.036 296.608C241.02 296.064 243.052 295.792 245.132 295.792ZM244.556 317.344C245.836 317.344 246.972 317.056 247.964 316.48C248.956 315.872 249.66 314.992 250.076 313.84V311.2H244.94C241.868 311.2 240.332 312.208 240.332 314.224C240.332 315.184 240.7 315.952 241.436 316.528C242.204 317.072 243.244 317.344 244.556 317.344ZM289.269 322V306.544L281.541 319.504H278.373L270.837 306.496V322H264.069V296.176H271.893L280.149 311.104L288.933 296.176H295.941L296.037 322H289.269ZM328.313 309.184C328.313 309.28 328.265 309.952 328.169 311.2H308.633C308.985 312.8 309.817 314.064 311.129 314.992C312.441 315.92 314.073 316.384 316.025 316.384C317.369 316.384 318.553 316.192 319.577 315.808C320.633 315.392 321.609 314.752 322.505 313.888L326.489 318.208C324.057 320.992 320.505 322.384 315.833 322.384C312.921 322.384 310.345 321.824 308.105 320.704C305.865 319.552 304.137 317.968 302.921 315.952C301.705 313.936 301.097 311.648 301.097 309.088C301.097 306.56 301.689 304.288 302.873 302.272C304.089 300.224 305.737 298.64 307.817 297.52C309.929 296.368 312.281 295.792 314.873 295.792C317.401 295.792 319.689 296.336 321.737 297.424C323.785 298.512 325.385 300.08 326.537 302.128C327.721 304.144 328.313 306.496 328.313 309.184ZM314.921 301.456C313.225 301.456 311.801 301.936 310.649 302.896C309.497 303.856 308.793 305.168 308.537 306.832H321.257C321.001 305.2 320.297 303.904 319.145 302.944C317.993 301.952 316.585 301.456 314.921 301.456ZM354.859 302.32H346.123V322H338.683V302.32H329.947V296.176H354.859V302.32ZM370.226 312.208H366.338V322H358.85V296.176H366.338V306.208H370.37L377.378 296.176H385.346L376.322 308.56L385.97 322H377.138L370.226 312.208ZM389.647 296.176H397.087V311.536L409.663 296.176H416.527V322H409.087V306.64L396.559 322H389.647V296.176ZM426.413 322.384C425.101 322.384 423.997 321.936 423.101 321.04C422.205 320.144 421.757 319.024 421.757 317.68C421.757 316.304 422.205 315.2 423.101 314.368C423.997 313.504 425.101 313.072 426.413 313.072C427.725 313.072 428.829 313.504 429.725 314.368C430.621 315.2 431.069 316.304 431.069 317.68C431.069 319.024 430.621 320.144 429.725 321.04C428.829 321.936 427.725 322.384 426.413 322.384Z" fill="white"/>
<g filter="url(#filter0_d)">
<path d="M590.371 455.659C639.244 495.735 577.521 530.411 556.052 561.739C534.583 593.068 490.477 607.456 451.662 545.051C412.848 482.646 414.707 460.463 472.108 441.332C529.51 422.2 541.499 415.583 590.371 455.659Z" fill="white"/>
</g>
<g filter="url(#filter1_d)">
<path d="M204.547 92.2299C233.165 140.881 155.019 170.726 98.6592 174.405C42.2996 178.085 16.4292 147.934 38.9694 92.2299C61.5096 36.5262 75.2961 23.5459 135.863 28.4518C196.43 33.3578 175.929 43.5787 204.547 92.2299Z" fill="white"/>
</g>
<defs>
<filter id="filter0_d" x="400" y="378" width="239.725" height="237.168" filterUnits="userSpaceOnUse" color-interpolation-filters="sRGB">
<feFlood flood-opacity="0" result="BackgroundImageFix"/>
<feColorMatrix in="SourceAlpha" type="matrix" values="0 0 0 0 0 0 0 0 0 0 0 0 0 0 0 0 0 0 127 0"/>
<feOffset/>
<feGaussianBlur stdDeviation="3"/>
<feColorMatrix type="matrix" values="0 0 0 0 0 0 0 0 0 0 0 0 0 0 0 0 0 0 0.25 0"/>
<feBlend mode="normal" in2="BackgroundImageFix" result="effect1_dropShadow"/>
<feBlend mode="normal" in="SourceGraphic" in2="effect1_dropShadow" result="shape"/>
</filter>
<filter id="filter1_d" x="13" y="0" width="223.034" height="219.005" filterUnits="userSpaceOnUse" color-interpolation-filters="sRGB">
<feFlood flood-opacity="0" result="BackgroundImageFix"/>
<feColorMatrix in="SourceAlpha" type="matrix" values="0 0 0 0 0 0 0 0 0 0 0 0 0 0 0 0 0 0 127 0"/>
<feOffset dy="4"/>
<feGaussianBlur stdDeviation="2"/>
<feColorMatrix type="matrix" values="0 0 0 0 0 0 0 0 0 0 0 0 0 0 0 0 0 0 0.25 0"/>
<feBlend mode="normal" in2="BackgroundImageFix" result="effect1_dropShadow"/>
<feBlend mode="normal" in="SourceGraphic" in2="effect1_dropShadow" result="shape"/>
</filter>
</defs>
</svg>
